<svg xmlns="http://www.w3.org/2000/svg" viewBox="0 0 256 257">
  <defs>
    <linearGradient id="a" x1="0%" x2="100%" y1="0%" y2="0%">
      <stop stop-color="#41D1FF" offset="0%" />
      <stop stop-color="#BD34FE" offset="100%" />
    </linearGradient>
    <linearGradient id="b" x1="0%" x2="100%" y1="0%" y2="0%">
      <stop stop-color="#FFEA83" offset="0%" />
      <stop stop-color="#FFDD35" offset="8.333%" />
      <stop stop-color="#FFA800" offset="100%" />
    </linearGradient>
  </defs>
  <path fill="url(#a)" d="m255.153 37.938-117.18 211.5c-1.99 3.593-7.227 3.668-9.322.134L.875 37.988c-2.35-3.976 1.107-8.832 5.64-7.934l120.221 23.748a5 5 0 0 0 1.856-.004l120.35-23.738c4.539-.894 7.99 3.979 5.632 7.953Z" />
  <path fill="url(#b)" d="M185.432.063 96.44 17.501a3.5 3.5 0 0 0-2.77 3.072l-5.913 74.348a3.5 3.5 0 0 0 4.43 3.645l24.718-7.003c2.354-.667 4.57 1.36 4.032 3.742l-7.337 32.823c-.548 2.45 1.782 4.57 4.151 3.78l15.262-5.201c2.373-.81 4.705 1.337 4.15 3.79l-11.698 52.386c-.732 3.277 3.66 5.126 5.483 2.205l1.313-2.108 72.516-144.72c1.215-2.423-.88-5.186-3.54-4.672l-25.505 4.922c-2.396.462-4.435-1.77-3.759-4.114l16.646-57.705c.677-2.35-1.37-4.585-3.762-4.11Z" />
</svg>

